<svg xmlns="http://www.w3.org/2000/svg" xmlns:xlink="http://www.w3.org/1999/xlink" width="205" zoomAndPan="magnify" viewBox="0 0 153.75 153.750002" height="205" preserveAspectRatio="xMidYMid meet" version="1.0"><defs><clipPath id="19997001b6"><path d="M 28 0 L 123.550781 0 L 123.550781 104 L 28 104 Z M 28 0 " clip-rule="nonzero"/></clipPath><clipPath id="3b7fa349e3"><path d="M 0 28 L 94 28 L 94 152.75 L 0 152.75 Z M 0 28 " clip-rule="nonzero"/></clipPath><clipPath id="8ed8eceefe"><path d="M 139 7 L 151 7 L 151 25 L 139 25 Z M 139 7 " clip-rule="nonzero"/></clipPath><clipPath id="68ca25f335"><path d="M 128.679688 0 L 152.96875 4.542969 L 147.597656 33.25 L 123.308594 28.707031 Z M 128.679688 0 " clip-rule="nonzero"/></clipPath><clipPath id="c255f71bdd"><path d="M 128.679688 0 L 152.96875 4.542969 L 147.597656 33.25 L 123.308594 28.707031 Z M 128.679688 0 " clip-rule="nonzero"/></clipPath><clipPath id="fd5eabd644"><path d="M 126 1 L 139 1 L 139 17 L 126 17 Z M 126 1 " clip-rule="nonzero"/></clipPath><clipPath id="dad33cccff"><path d="M 128.679688 0 L 152.96875 4.542969 L 147.597656 33.25 L 123.308594 28.707031 Z M 128.679688 0 " clip-rule="nonzero"/></clipPath><clipPath id="20b561e239"><path d="M 128.679688 0 L 152.96875 4.542969 L 147.597656 33.25 L 123.308594 28.707031 Z M 128.679688 0 " clip-rule="nonzero"/></clipPath><clipPath id="5c3552037e"><path d="M 126 17 L 135 17 L 135 26 L 126 26 Z M 126 17 " clip-rule="nonzero"/></clipPath><clipPath id="6ab61eaeef"><path d="M 128.679688 0 L 152.96875 4.542969 L 147.597656 33.25 L 123.308594 28.707031 Z M 128.679688 0 " clip-rule="nonzero"/></clipPath><clipPath id="f9aab1bc79"><path d="M 128.679688 0 L 152.96875 4.542969 L 147.597656 33.25 L 123.308594 28.707031 Z M 128.679688 0 " clip-rule="nonzero"/></clipPath><clipPath id="f246a8ae33"><path d="M 137 23 L 147 23 L 147 32 L 137 32 Z M 137 23 " clip-rule="nonzero"/></clipPath><clipPath id="545b0550de"><path d="M 128.679688 0 L 152.96875 4.542969 L 147.597656 33.25 L 123.308594 28.707031 Z M 128.679688 0 " clip-rule="nonzero"/></clipPath><clipPath id="84cb3312cb"><path d="M 128.679688 0 L 152.96875 4.542969 L 147.597656 33.25 L 123.308594 28.707031 Z M 128.679688 0 " clip-rule="nonzero"/></clipPath></defs><g clip-path="url(#19997001b6)"><path fill="#0761d8" d="M 75.996094 0.0195312 C 73.886719 0.0234375 71.785156 0.164062 69.691406 0.445312 C 67.597656 0.726562 65.535156 1.148438 63.5 1.707031 C 61.464844 2.265625 59.472656 2.960938 57.53125 3.785156 C 55.585938 4.613281 53.707031 5.5625 51.894531 6.640625 C 50.078125 7.71875 48.34375 8.914062 46.6875 10.226562 C 45.03125 11.539062 43.472656 12.953125 42.007812 14.472656 C 40.542969 15.992188 39.1875 17.605469 37.9375 19.308594 C 36.6875 21.011719 35.558594 22.789062 34.550781 24.644531 C 38.714844 23.613281 42.941406 23.101562 47.234375 23.101562 C 47.808594 23.101562 48.382812 23.117188 48.945312 23.132812 C 50.441406 23.175781 51.929688 23.289062 53.390625 23.460938 C 54.898438 22.019531 56.527344 20.734375 58.28125 19.605469 C 60.035156 18.476562 61.882812 17.523438 63.816406 16.75 C 65.753906 15.972656 67.746094 15.386719 69.796875 14.992188 C 71.84375 14.597656 73.910156 14.402344 75.996094 14.402344 C 94.117188 14.402344 108.859375 29.144531 108.859375 47.265625 C 108.859375 49.34375 108.664062 51.402344 108.273438 53.441406 C 107.878906 55.484375 107.300781 57.46875 106.527344 59.398438 C 105.757812 61.328125 104.8125 63.167969 103.6875 64.917969 C 102.566406 66.667969 101.289062 68.292969 99.855469 69.800781 C 98.230469 71.546875 96.429688 73.089844 94.453125 74.429688 C 90.039062 77.441406 85.179688 79.257812 79.871094 79.878906 C 78.589844 80.039062 77.296875 80.113281 76.003906 80.109375 L 43.148438 80.109375 L 43.148438 49.320312 C 39.105469 49.917969 35.394531 51.375 32.019531 53.683594 C 30.871094 54.46875 29.785156 55.335938 28.769531 56.285156 L 28.769531 103.183594 L 43.148438 103.183594 L 43.148438 94.484375 L 75.996094 94.484375 C 77.542969 94.480469 79.085938 94.40625 80.625 94.25 C 82.164062 94.097656 83.691406 93.871094 85.210938 93.570312 C 86.726562 93.265625 88.222656 92.890625 89.703125 92.441406 C 91.183594 91.992188 92.636719 91.46875 94.066406 90.878906 C 95.496094 90.285156 96.890625 89.625 98.253906 88.894531 C 99.621094 88.167969 100.945312 87.371094 102.230469 86.511719 C 103.515625 85.652344 104.757812 84.734375 105.953125 83.753906 C 107.148438 82.769531 108.292969 81.734375 109.386719 80.640625 C 110.480469 79.546875 111.519531 78.402344 112.5 77.207031 C 113.480469 76.011719 114.402344 74.773438 115.261719 73.484375 C 116.121094 72.199219 116.917969 70.875 117.644531 69.511719 C 118.375 68.148438 119.035156 66.753906 119.628906 65.324219 C 120.222656 63.894531 120.742188 62.441406 121.195312 60.960938 C 121.644531 59.480469 122.019531 57.984375 122.324219 56.46875 C 122.625 54.949219 122.855469 53.421875 123.007812 51.882812 C 123.160156 50.34375 123.238281 48.800781 123.242188 47.253906 C 123.242188 21.203125 102.054688 0.0195312 75.996094 0.0195312 Z M 75.996094 0.0195312 " fill-opacity="1" fill-rule="nonzero"/></g><g clip-path="url(#3b7fa349e3)"><path fill="#0761d8" d="M 69.480469 100.246094 C 68.082031 101.539062 66.585938 102.699219 64.984375 103.730469 C 63.382812 104.761719 61.707031 105.644531 59.953125 106.382812 C 58.199219 107.121094 56.390625 107.703125 54.535156 108.125 C 52.679688 108.546875 50.800781 108.808594 48.902344 108.902344 C 48.355469 108.929688 47.792969 108.945312 47.234375 108.945312 L 14.386719 108.945312 L 14.386719 76.09375 C 14.382812 74.058594 14.570312 72.039062 14.945312 70.039062 C 15.320312 68.039062 15.875 66.089844 16.613281 64.191406 C 17.351562 62.296875 18.257812 60.484375 19.335938 58.753906 C 20.410156 57.027344 21.636719 55.414062 23.015625 53.914062 C 24.335938 52.476562 25.769531 51.164062 27.324219 49.980469 C 28.878906 48.792969 30.523438 47.757812 32.261719 46.863281 C 33.996094 45.972656 35.800781 45.238281 37.667969 44.667969 C 39.535156 44.097656 41.441406 43.695312 43.378906 43.460938 C 44.660156 43.304688 45.945312 43.226562 47.234375 43.230469 C 47.894531 43.230469 48.554688 43.246094 49.203125 43.300781 C 65.734375 44.265625 79.003906 57.523438 80.023438 74.035156 C 84.082031 73.4375 87.808594 71.980469 91.199219 69.671875 C 92.082031 69.074219 92.921875 68.421875 93.722656 67.714844 C 93.484375 66.398438 93.191406 65.09375 92.84375 63.800781 C 92.492188 62.511719 92.089844 61.234375 91.632812 59.976562 C 91.175781 58.71875 90.664062 57.484375 90.101562 56.269531 C 89.539062 55.054688 88.925781 53.867188 88.261719 52.703125 C 87.601562 51.539062 86.886719 50.40625 86.128906 49.304688 C 85.367188 48.203125 84.5625 47.136719 83.714844 46.101562 C 82.863281 45.066406 81.96875 44.070312 81.035156 43.113281 C 80.101562 42.15625 79.125 41.238281 78.113281 40.363281 C 77.101562 39.488281 76.054688 38.660156 74.96875 37.871094 C 73.886719 37.085938 72.773438 36.347656 71.625 35.65625 C 70.480469 34.964844 69.304688 34.324219 68.105469 33.730469 C 66.90625 33.136719 65.679688 32.597656 64.433594 32.109375 C 63.1875 31.621094 61.921875 31.1875 60.640625 30.808594 C 59.355469 30.425781 58.058594 30.101562 56.75 29.832031 C 55.4375 29.5625 54.117188 29.347656 52.789062 29.1875 C 51.460938 29.03125 50.125 28.929688 48.789062 28.882812 C 48.269531 28.871094 47.75 28.855469 47.234375 28.855469 C 41.8125 28.851562 36.550781 29.757812 31.441406 31.574219 C 29.050781 32.425781 26.746094 33.464844 24.523438 34.695312 C 22.679688 35.707031 20.90625 36.839844 19.210938 38.089844 C 17.515625 39.339844 15.910156 40.695312 14.394531 42.160156 C 12.882812 43.625 11.472656 45.183594 10.167969 46.839844 C 8.863281 48.492188 7.671875 50.222656 6.597656 52.039062 C 5.523438 53.851562 4.578125 55.726562 3.753906 57.664062 C 2.933594 59.605469 2.242188 61.589844 1.683594 63.621094 C 1.128906 65.652344 0.710938 67.710938 0.425781 69.800781 C 0.144531 71.886719 0.00390625 73.984375 0.00390625 76.09375 L 0.00390625 145.199219 C 4.539062 148.296875 9.332031 150.925781 14.386719 153.078125 L 14.386719 123.324219 L 28.765625 123.324219 L 28.765625 145.199219 C 33.300781 148.300781 38.09375 150.925781 43.148438 153.078125 L 43.148438 123.324219 L 47.234375 123.324219 C 47.792969 123.324219 48.355469 123.308594 48.902344 123.28125 C 50.941406 123.210938 52.972656 123.007812 54.988281 122.671875 C 57.003906 122.335938 58.988281 121.875 60.945312 121.28125 C 62.898438 120.6875 64.808594 119.972656 66.671875 119.132812 C 68.53125 118.292969 70.332031 117.335938 72.070312 116.261719 C 73.808594 115.1875 75.472656 114.003906 77.054688 112.714844 C 78.640625 111.425781 80.136719 110.039062 81.539062 108.554688 C 82.945312 107.070312 84.246094 105.5 85.449219 103.847656 C 86.648438 102.195312 87.738281 100.472656 88.714844 98.675781 C 84.542969 99.726562 80.304688 100.25 76 100.246094 Z M 69.480469 100.246094 " fill-opacity="1" fill-rule="nonzero"/></g><g clip-path="url(#8ed8eceefe)"><g clip-path="url(#68ca25f335)"><g clip-path="url(#c255f71bdd)"><path fill="#0761d8" d="M 140.175781 15.152344 C 140.496094 13.5625 140.90625 12.003906 141.742188 10.589844 C 142.339844 9.582031 143.101562 8.726562 144.195312 8.253906 C 145.726562 7.582031 147.105469 7.957031 148.339844 8.984375 C 149.492188 9.945312 150.050781 11.253906 150.382812 12.667969 C 150.6875 14.003906 150.664062 15.363281 150.484375 16.71875 C 150.1875 19.035156 149.273438 21.132812 148.207031 23.171875 C 147.988281 23.582031 147.796875 24.015625 147.558594 24.417969 C 147.324219 24.804688 147.132812 24.871094 146.703125 24.703125 C 146.011719 24.425781 145.339844 24.078125 144.644531 23.820312 C 143.175781 23.277344 141.695312 22.769531 140.210938 22.269531 C 139.5625 22.050781 139.453125 21.90625 139.519531 21.234375 C 139.703125 19.421875 139.878906 17.617188 140.058594 15.808594 C 140.078125 15.582031 140.132812 15.371094 140.175781 15.152344 Z M 140.175781 15.152344 " fill-opacity="1" fill-rule="nonzero"/></g></g></g><g clip-path="url(#fd5eabd644)"><g clip-path="url(#dad33cccff)"><g clip-path="url(#20b561e239)"><path fill="#0761d8" d="M 133.359375 16.613281 C 132.242188 16.464844 131.121094 16.292969 129.996094 16.171875 C 129.136719 16.078125 128.265625 16.042969 127.40625 15.953125 C 126.777344 15.898438 126.621094 15.734375 126.621094 15.09375 C 126.628906 14.078125 126.648438 13.054688 126.695312 12.039062 C 126.765625 10.71875 126.921875 9.402344 127.300781 8.132812 C 128.035156 5.667969 129.171875 3.464844 131.402344 1.992188 C 132.46875 1.292969 133.648438 0.988281 134.910156 1.199219 C 136.179688 1.414062 137.078125 2.171875 137.636719 3.324219 C 138.175781 4.421875 138.296875 5.597656 138.214844 6.800781 C 138.054688 9.152344 137.285156 11.328125 136.386719 13.46875 C 135.980469 14.4375 135.570312 15.398438 135.152344 16.363281 C 134.945312 16.84375 134.84375 16.894531 134.316406 16.816406 C 133.992188 16.769531 133.671875 16.695312 133.347656 16.636719 C 133.359375 16.636719 133.355469 16.621094 133.359375 16.613281 Z M 133.359375 16.613281 " fill-opacity="1" fill-rule="nonzero"/></g></g></g><g clip-path="url(#5c3552037e)"><g clip-path="url(#6ab61eaeef)"><g clip-path="url(#f9aab1bc79)"><path fill="#0761d8" d="M 134.390625 22.152344 C 134.179688 23.199219 133.699219 24.097656 132.886719 24.8125 C 131.445312 26.074219 129.363281 25.773438 128.359375 24.140625 C 128.101562 23.730469 127.894531 23.273438 127.75 22.816406 C 127.277344 21.292969 127.117188 19.714844 126.945312 18.136719 C 126.878906 17.535156 127.09375 17.339844 127.6875 17.398438 C 128.328125 17.457031 128.96875 17.578125 129.617188 17.65625 C 130.773438 17.789062 131.941406 17.898438 133.097656 18.039062 C 133.453125 18.082031 133.800781 18.191406 134.148438 18.28125 C 134.347656 18.324219 134.414062 18.476562 134.417969 18.65625 C 134.433594 19.640625 134.457031 20.628906 134.464844 21.617188 C 134.464844 21.796875 134.414062 21.972656 134.390625 22.152344 Z M 134.390625 22.152344 " fill-opacity="1" fill-rule="nonzero"/></g></g></g><g clip-path="url(#f246a8ae33)"><g clip-path="url(#545b0550de)"><g clip-path="url(#84cb3312cb)"><path fill="#0761d8" d="M 137.992188 25.796875 C 138.3125 25.15625 138.695312 24.542969 139.027344 23.914062 C 139.179688 23.621094 139.375 23.480469 139.695312 23.59375 C 140.476562 23.875 141.25 24.152344 142.03125 24.4375 C 143.203125 24.875 144.386719 25.3125 145.558594 25.761719 C 146.21875 26.011719 146.332031 26.292969 145.914062 26.898438 C 145.25 27.859375 144.566406 28.800781 143.832031 29.714844 C 143.394531 30.25 142.890625 30.757812 142.34375 31.175781 C 141.269531 31.992188 140.085938 32.164062 138.871094 31.46875 C 137.910156 30.917969 137.476562 30.003906 137.347656 28.953125 C 137.28125 28.441406 137.730469 26.304688 137.992188 25.796875 Z M 137.992188 25.796875 " fill-opacity="1" fill-rule="nonzero"/></g></g></g></svg>